<svg width="34" height="34" viewBox="0 0 34 34" fill="none" xmlns="http://www.w3.org/2000/svg">
    <path d="M28.6667 3.66668H25.3333V2.00001C25.3333 1.55798 25.1577 1.13406 24.8452 0.821499C24.5326 0.508938 24.1087 0.333344 23.6667 0.333344C23.2246 0.333344 22.8007 0.508938 22.4882 0.821499C22.1756 1.13406 22 1.55798 22 2.00001V3.66668H12V2.00001C12 1.55798 11.8244 1.13406 11.5118 0.821499C11.1993 0.508938 10.7754 0.333344 10.3333 0.333344C9.89131 0.333344 9.46739 0.508938 9.15483 0.821499C8.84226 1.13406 8.66667 1.55798 8.66667 2.00001V3.66668H5.33334C4.00725 3.66668 2.73548 4.19346 1.7978 5.13114C0.86012 6.06883 0.333336 7.34059 0.333336 8.66668V28.6667C0.333336 29.9928 0.86012 31.2645 1.7978 32.2022C2.73548 33.1399 4.00725 33.6667 5.33334 33.6667H28.6667C29.9928 33.6667 31.2645 33.1399 32.2022 32.2022C33.1399 31.2645 33.6667 29.9928 33.6667 28.6667V8.66668C33.6667 7.34059 33.1399 6.06883 32.2022 5.13114C31.2645 4.19346 29.9928 3.66668 28.6667 3.66668V3.66668ZM30.3333 28.6667C30.3333 29.1087 30.1577 29.5326 29.8452 29.8452C29.5326 30.1578 29.1087 30.3333 28.6667 30.3333H5.33334C4.89131 30.3333 4.46739 30.1578 4.15483 29.8452C3.84226 29.5326 3.66667 29.1087 3.66667 28.6667V17H30.3333V28.6667ZM30.3333 13.6667H3.66667V8.66668C3.66667 8.22465 3.84226 7.80073 4.15483 7.48817C4.46739 7.17561 4.89131 7.00001 5.33334 7.00001H8.66667V8.66668C8.66667 9.1087 8.84226 9.53263 9.15483 9.84519C9.46739 10.1577 9.89131 10.3333 10.3333 10.3333C10.7754 10.3333 11.1993 10.1577 11.5118 9.84519C11.8244 9.53263 12 9.1087 12 8.66668V7.00001H22V8.66668C22 9.1087 22.1756 9.53263 22.4882 9.84519C22.8007 10.1577 23.2246 10.3333 23.6667 10.3333C24.1087 10.3333 24.5326 10.1577 24.8452 9.84519C25.1577 9.53263 25.3333 9.1087 25.3333 8.66668V7.00001H28.6667C29.1087 7.00001 29.5326 7.17561 29.8452 7.48817C30.1577 7.80073 30.3333 8.22465 30.3333 8.66668V13.6667Z"
          fill="#4E69F4"/>
</svg>
