<svg width="34" height="20" viewBox="0 0 34 20" fill="none" xmlns="http://www.w3.org/2000/svg">
    <path d="M3.18333 17.15C3.02483 16.9983 2.83792 16.8793 2.63333 16.8C2.22757 16.6333 1.77244 16.6333 1.36667 16.8C1.16208 16.8793 0.975174 16.9983 0.816668 17.15C0.664933 17.3085 0.545992 17.4954 0.466668 17.7C0.339035 18.0035 0.304164 18.338 0.366454 18.6614C0.428745 18.9847 0.585405 19.2823 0.816668 19.5167C0.978669 19.6639 1.16469 19.7823 1.36667 19.8667C1.56617 19.9548 1.78188 20.0004 2 20.0004C2.21812 20.0004 2.43383 19.9548 2.63333 19.8667C2.83531 19.7823 3.02133 19.6639 3.18333 19.5167C3.4146 19.2823 3.57126 18.9847 3.63355 18.6614C3.69584 18.338 3.66097 18.0035 3.53333 17.7C3.45401 17.4954 3.33507 17.3085 3.18333 17.15ZM8.66667 3.33333H32C32.442 3.33333 32.866 3.15774 33.1785 2.84518C33.4911 2.53262 33.6667 2.10869 33.6667 1.66667C33.6667 1.22464 33.4911 0.800716 33.1785 0.488156C32.866 0.175595 32.442 0 32 0H8.66667C8.22464 0 7.80072 0.175595 7.48816 0.488156C7.1756 0.800716 7 1.22464 7 1.66667C7 2.10869 7.1756 2.53262 7.48816 2.84518C7.80072 3.15774 8.22464 3.33333 8.66667 3.33333ZM3.18333 8.81667C2.94896 8.5854 2.65134 8.42874 2.32802 8.36645C2.00471 8.30416 1.67019 8.33903 1.36667 8.46667C1.16469 8.55107 0.978669 8.66945 0.816668 8.81667C0.664933 8.97517 0.545992 9.16208 0.466668 9.36667C0.378492 9.56617 0.332947 9.78188 0.332947 10C0.332947 10.2181 0.378492 10.4338 0.466668 10.6333C0.551071 10.8353 0.669449 11.0213 0.816668 11.1833C0.978669 11.3306 1.16469 11.4489 1.36667 11.5333C1.56617 11.6215 1.78188 11.6671 2 11.6671C2.21812 11.6671 2.43383 11.6215 2.63333 11.5333C2.83531 11.4489 3.02133 11.3306 3.18333 11.1833C3.33055 11.0213 3.44893 10.8353 3.53333 10.6333C3.62151 10.4338 3.66706 10.2181 3.66706 10C3.66706 9.78188 3.62151 9.56617 3.53333 9.36667C3.45401 9.16208 3.33507 8.97517 3.18333 8.81667ZM32 8.33333H8.66667C8.22464 8.33333 7.80072 8.50893 7.48816 8.82149C7.1756 9.13405 7 9.55797 7 10C7 10.442 7.1756 10.8659 7.48816 11.1785C7.80072 11.4911 8.22464 11.6667 8.66667 11.6667H32C32.442 11.6667 32.866 11.4911 33.1785 11.1785C33.4911 10.8659 33.6667 10.442 33.6667 10C33.6667 9.55797 33.4911 9.13405 33.1785 8.82149C32.866 8.50893 32.442 8.33333 32 8.33333ZM3.18333 0.483333C3.02483 0.331599 2.83792 0.212657 2.63333 0.133333C2.32982 0.00570082 1.99529 -0.0291699 1.67198 0.0331203C1.34866 0.0954105 1.05104 0.25207 0.816668 0.483333C0.669449 0.645335 0.551071 0.831358 0.466668 1.03333C0.378492 1.23283 0.332947 1.44855 0.332947 1.66667C0.332947 1.88478 0.378492 2.1005 0.466668 2.3C0.551071 2.50198 0.669449 2.688 0.816668 2.85C0.978669 2.99722 1.16469 3.1156 1.36667 3.2C1.67019 3.32763 2.00471 3.3625 2.32802 3.30021C2.65134 3.23792 2.94896 3.08126 3.18333 2.85C3.33055 2.688 3.44893 2.50198 3.53333 2.3C3.62151 2.1005 3.66706 1.88478 3.66706 1.66667C3.66706 1.44855 3.62151 1.23283 3.53333 1.03333C3.44893 0.831358 3.33055 0.645335 3.18333 0.483333ZM32 16.6667H8.66667C8.22464 16.6667 7.80072 16.8423 7.48816 17.1548C7.1756 17.4674 7 17.8913 7 18.3333C7 18.7754 7.1756 19.1993 7.48816 19.5118C7.80072 19.8244 8.22464 20 8.66667 20H32C32.442 20 32.866 19.8244 33.1785 19.5118C33.4911 19.1993 33.6667 18.7754 33.6667 18.3333C33.6667 17.8913 33.4911 17.4674 33.1785 17.1548C32.866 16.8423 32.442 16.6667 32 16.6667Z"
          fill="#4E69F4"/>
</svg>
